/* XPM */
static char *result[] = {
/* columns rows colors chars-per-pixel */
"32 36 6 1 ",
"  c #743F39",
". c #B86F50",
"X c #C28569",
"o c #124E89",
"O c white",
"+ c None",
/* pixels */
"++++++++++++++++++++++++++++++++",
"++++++++++++++++++++++++++++++++",
"++++++++++++++++++++++++++++++++",
"++++++++++++++++++++++++++++++++",
"++++++++++++++++OOO+++++++++++++",
"++++++++++++++++OO++++++++++++++",
"+++++++++++++++OO ++++++++++++++",
"+++++++++++++++OO X+++++++++++++",
"+++++++++++++++OO X+++++++++++++",
"+++++++++++++++OOXX+++++++++++++",
"+++++++++++++++OO ++++++++++++++",
"+++++++++++++++OOO++++++++++++++",
"++++++++++++++++OO++++++++++++++",
"++++++++++++++++OOO++++........+",
"+++++++++++++++++OO+++.++.++.++.",
"+++++++++++++++++ O++. .. .. ...",
"+++++++++++++++++ +++.X        .",
"++++++++......... ...XXXXXXXXXX.",
"+++.......++.++.+ .++XXXXXXXXXX.",
"+..++.++. XX XX X  X X..........",
"+..XX XX            X.XXX XX XX.",
"++...................XX ........",
"++.XX.XX..XX.XX.XX.X...       ..",
"+++..................         ..",
"++++.                         ..",
"++++.                         ..",
"+++++..                       .+",
"++++++o                       ++",
"+++++++o                     o++",
"+++++++ooo                  o+++",
"++++++++oooooooooooooooooooo++++",
"++++++++++++++oooooooo++++++++++",
"++++++++oooo++++++++++++ooo+++++",
"++++++++++++++++++++++++++++++++",
"++++++++++++++++++++++++++++++++",
"++++++++++++++++++++++++++++++++"
};
