/* XPM */
static char *_184968911704e8dd8ed93a23361f3acqD3OJMehUK7m0UWG[] = {
/* columns rows colors chars-per-pixel */
"32 32 7 1 ",
"  c None",
". c #181425",
"X c #E4A672",
"o c #5A6988",
"O c #8B9BB4",
"+ c #EAD4AA",
"@ c white",
/* pixels */
"                                ",
"                                ",
"                                ",
"                                ",
"                                ",
"                                ",
"                                ",
"                                ",
"                                ",
"                                ",
"                                ",
"                                ",
"             .... ..            ",
"            .........           ",
"           .....@@@...          ",
"          .....@@@@@...         ",
"        .......@.@.@....        ",
"        ........@@@.....        ",
"        ........@.@.....        ",
"        ................        ",
"           .X+++++++.           ",
"           .X+..+++..           ",
"           .X+..+++..           ",
"           .X+++++++.           ",
"           .X+++++++.           ",
"           .X+++++++.           ",
"           .OOOOOOOO.           ",
"           .oooooooo.           ",
"          ..oooooooo.           ",
"         .OOO......OO.          ",
"         .O..      ...          ",
"         ...                    "
};
